<?xml version="1.0" standalone="no"?>
<!DOCTYPE svg PUBLIC "-//W3C//DTD SVG 20010904//EN"
 "http://www.w3.org/TR/2001/REC-SVG-20010904/DTD/svg10.dtd">
<svg version="1.0" xmlns="http://www.w3.org/2000/svg"
 width="32.000000pt" height="32.000000pt" viewBox="0 0 32.000000 32.000000"
 preserveAspectRatio="xMidYMid meet">

<g transform="translate(0.000000,32.000000) scale(0.100000,-0.100000)"
fill="#000000" stroke="none">
<path d="M150 292 l75 -4 -45 -14 c-58 -18 -134 -19 -125 -1 4 6 -3 1 -14 -12
-26 -29 -28 -50 -3 -28 10 10 31 17 45 17 23 0 27 -4 23 -22 -3 -13 -8 -44
-11 -70 -4 -30 -16 -59 -31 -78 -21 -24 -23 -33 -14 -50 13 -24 33 -26 50 -5
7 8 17 62 23 120 l11 105 28 0 27 0 -2 -93 c-2 -75 1 -98 16 -120 9 -15 24
-27 33 -27 22 0 64 46 64 71 0 21 -1 21 -18 6 -10 -10 -24 -17 -31 -17 -21 0
-32 52 -25 117 l6 63 34 0 c30 0 34 3 34 25 l0 25 -112 -2 c-95 -2 -101 -3
-38 -6z"/>
</g>
</svg>
